<svg id="Layer_1" data-name="Layer 1" xmlns="http://www.w3.org/2000/svg" xmlns:xlink="http://www.w3.org/1999/xlink" viewBox="0 0 1234.11 329.75"><defs><style>.cls-1{fill:#545454;}.cls-2,.cls-7{fill:none;}.cls-3{fill:url(#linear-gradient);}.cls-4{fill:url(#linear-gradient-2);}.cls-5{fill:url(#linear-gradient-3);}.cls-6{fill:url(#linear-gradient-4);}.cls-7{stroke:#1d1d1b;stroke-miterlimit:10;stroke-width:2px;}.cls-8{fill:#1c1c1c;}</style><linearGradient id="linear-gradient" x1="240.19" y1="284.21" x2="338.3" y2="369.68" gradientUnits="userSpaceOnUse"><stop offset="0" stop-color="#efedf5"/><stop offset="1" stop-color="#eaebf7"/></linearGradient><linearGradient id="linear-gradient-2" x1="103.52" y1="80.74" x2="304.23" y2="262.69" gradientUnits="userSpaceOnUse"><stop offset="0" stop-color="#fff"/><stop offset="1" stop-color="#fff"/></linearGradient><linearGradient id="linear-gradient-3" x1="79.49" y1="71.91" x2="49.13" y2="280.15" gradientUnits="userSpaceOnUse"><stop offset="0" stop-color="#49defe"/><stop offset="0.11" stop-color="#99daca"/><stop offset="0.47" stop-color="#f9bf8d"/><stop offset="0.68" stop-color="#fc987d"/><stop offset="0.89" stop-color="#fe6d7d"/></linearGradient><linearGradient id="linear-gradient-4" x1="189.63" y1="105.39" x2="223.26" y2="351.29" gradientUnits="userSpaceOnUse"><stop offset="0" stop-color="#48cffc"/><stop offset="0.2" stop-color="#6f90fd"/><stop offset="0.36" stop-color="#8a80fd"/><stop offset="0.56" stop-color="#a66ffc"/></linearGradient></defs><polyline class="cls-1" points="1 1.16 261.24 1.16 261.24 264.22 131.12 328.63 1 263.86 1 1.16"/><polygon class="cls-2" points="1 1.16 261.24 1.16 261.24 264.22 131.12 328.63 1 263.86 1 1.16"/><polygon class="cls-3" points="1 1.16 1 263.86 131.12 328.63 131.12 1.16 1 1.16"/><polygon class="cls-4" points="131.12 1 131.12 328.47 261.24 264.06 261.24 1 131.12 1"/><polygon class="cls-5" points="119.94 242.22 119.82 278.1 11.62 236.57 11.62 54.58 11.82 54.58 117.47 54.58 118.41 89.63 39.12 85.63 38.97 215.96 119.94 242.22"/><polygon class="cls-6" points="144.35 53.86 144.31 185.61 221.49 163.5 221.96 209.14 144.4 241.7 144.37 276.61 251.13 227.2 250.78 126.79 185.31 140.91 184.43 88.85 251.49 83.2 251.31 54.26 144.35 53.86"/><rect class="cls-2" x="763.31" y="87.28" width="38.29" height="94.94"/><polygon class="cls-7" points="1 1.16 261.24 1 261.24 264.06 131.12 328.63 1 263.86 1 1.16"/><rect class="cls-2" x="283.16" y="67.81" width="38.03" height="77.38"/><path class="cls-8" d="M677.38,477q.3,3.1.75,6.37.32,3,.61,6.51c.2,2.38.3,4.85.3,7.43q0,14.94-7.54,22.47t-22.24,7.55q-15.54,0-23.16-7.85t-7.62-24.67v-58q0-16.75,7.62-24.6t23.16-7.84q14.09,0,21.94,7.8T679,434.37q0,3.56-.3,6.89c-.2,2.23-.4,4.22-.61,6q-.45,3.11-.75,5.76h-18V436.87q0-8.42-2.58-11.45t-7.5-3c-3.44,0-6,1-7.7,3S639,431.26,639,436.87v58q0,8.41,2.54,11.45c1.7,2,4.26,3,7.7,3s5.84-1,7.54-3,2.54-5.84,2.54-11.45V477Z" transform="translate(-307.59 -318.88)"/><path class="cls-8" d="M731.62,525.62V465.06q0-6.51-2.27-9.21a6.87,6.87,0,0,0-5.38-2.69,8.69,8.69,0,0,0-6.67,3.11q-2.81,3.11-2.81,8.79v60.56H694.94V400.94h19.55v42.9l-1.67,7.58h.76a37.36,37.36,0,0,1,4.4-8.19,23.69,23.69,0,0,1,5.72-5.61,14.66,14.66,0,0,1,8.68-2.5,17.37,17.37,0,0,1,13.68,6q5.27,6,5.27,18.72v65.79Z" transform="translate(-307.59 -318.88)"/><path class="cls-8" d="M765.4,506.83a32.43,32.43,0,0,1,1.33-9.71,24.24,24.24,0,0,1,4.2-7.88,46.33,46.33,0,0,1,7.39-7.24,111.84,111.84,0,0,1,11-7.61l11.75-7.74v-3.41q0-5.76-2.16-8.41a6.71,6.71,0,0,0-5.42-2.65,7.09,7.09,0,0,0-5.42,2.57c-1.54,1.72-2.31,4.28-2.31,7.66v6.9h-17c-.3-.81-.6-1.75-.91-2.81-.2-.8-.4-1.79-.6-2.95a20.89,20.89,0,0,1-.31-3.72,25.83,25.83,0,0,1,1.86-10,22,22,0,0,1,5.34-7.77,25.21,25.21,0,0,1,8.38-5.12,30.6,30.6,0,0,1,10.95-1.86q12.88,0,20.09,7.32t7.2,20.8v41.92a58.9,58.9,0,0,0,.49,8.45,24.35,24.35,0,0,0,1.25,5.19,6.94,6.94,0,0,0,1.74,3.41v3.41H805.5a13.32,13.32,0,0,1-1.75-3.71,22.63,22.63,0,0,1-1.21-4.59,38.81,38.81,0,0,1-.45-6.33h-1a28.87,28.87,0,0,1-3.87,8.27,23,23,0,0,1-5.83,5.61,15.61,15.61,0,0,1-9,2.5q-7.73,0-12.36-5.16T765.4,506.83Zm35.7-24.64L792.76,488a41.21,41.21,0,0,0-4,2.88,13.57,13.57,0,0,0-2.65,2.92,12.07,12.07,0,0,0-1.55,3.48,16.58,16.58,0,0,0-.53,4.44q0,7.58,7.8,7.58a8.44,8.44,0,0,0,6.56-3q2.69-3,2.69-8.95Z" transform="translate(-307.59 -318.88)"/><path class="cls-8" d="M838.44,406.09H858v20.47H838.44Zm0,30.78H858v88.75H838.44Z" transform="translate(-307.59 -318.88)"/><path class="cls-8" d="M912.32,525.62V465.06q0-6.51-2.27-9.21a6.89,6.89,0,0,0-5.39-2.69,8.72,8.72,0,0,0-6.67,3.11q-2.81,3.11-2.8,8.79v60.56H875.63V436.87h19.56v6.82l-1.67,7.73h.76a37.36,37.36,0,0,1,4.4-8.19,23.69,23.69,0,0,1,5.72-5.61,14.66,14.66,0,0,1,8.68-2.5,17.37,17.37,0,0,1,13.68,6q5.26,6,5.27,18.72v65.79Z" transform="translate(-307.59 -318.88)"/><path class="cls-8" d="M985.21,447.1a37.82,37.82,0,0,1,.53-4.09c.1-1.17.2-2.45.3-3.87s.15-2.75.15-4q0-7-2.35-9.85a7.6,7.6,0,0,0-6.21-2.88,9,9,0,0,0-7,2.73q-2.5,2.73-2.5,9.25V436a14.07,14.07,0,0,0,2.88,8.45,54.18,54.18,0,0,0,7.16,8q4.27,4,9.25,8.15a82.85,82.85,0,0,1,9.2,9.06,48.72,48.72,0,0,1,7.13,10.87,30.61,30.61,0,0,1,2.88,13.42v3.41q0,14.94-7.54,22.47t-22.25,7.55a34,34,0,0,1-12.2-2,27.22,27.22,0,0,1-9.17-5.61,23.57,23.57,0,0,1-5.8-8.6,29.72,29.72,0,0,1-2-11.11,55.62,55.62,0,0,1,.3-5.91c.21-1.87.41-3.51.61-4.92.3-1.67.61-3.19.91-4.55H967.4c-.21,1.36-.36,2.73-.46,4.09a28.82,28.82,0,0,0-.38,3.87c0,1.41-.07,2.75-.07,4q0,7,2.61,9.86c1.75,1.92,4.33,2.88,7.77,2.88a8.75,8.75,0,0,0,6.9-2.73c1.62-1.82,2.42-4.9,2.42-9.25v-3.41a14.16,14.16,0,0,0-2.88-8.45,53.5,53.5,0,0,0-7.16-7.92q-4.27-3.94-9.25-8.15a84,84,0,0,1-9.2-9.09,49.22,49.22,0,0,1-7.13-10.84A30.5,30.5,0,0,1,947.69,436v-1.66q0-14.94,7.62-22.44t22.32-7.5a38.27,38.27,0,0,1,12.66,1.85,21.05,21.05,0,0,1,8.49,5.35,20.76,20.76,0,0,1,4.73,8.6,41.17,41.17,0,0,1,1.48,11.48,48,48,0,0,1-.34,6c-.23,1.82-.44,3.44-.64,4.85-.31,1.67-.56,3.18-.76,4.55Z" transform="translate(-307.59 -318.88)"/><path class="cls-8" d="M1021.64,464.15q0-14.1,7.32-21.56t21-7.47q12.73,0,20,7.13t7.28,19.25a32.74,32.74,0,0,1-.3,4.51c-.21,1.44-.41,2.74-.61,3.9-.3,1.37-.56,2.61-.76,3.72h-17.28v-9.48q0-6.51-2.31-9.24a7.52,7.52,0,0,0-6-2.73,8,8,0,0,0-6.29,2.73c-1.62,1.82-2.42,4.9-2.42,9.24v34.19c0,4.34.8,7.41,2.42,9.21a8.1,8.1,0,0,0,6.29,2.69,7.58,7.58,0,0,0,6-2.69q2.31-2.7,2.31-9.21V488h17.28c.2,1.16.46,2.35.76,3.56s.4,2.52.61,4.06a41.17,41.17,0,0,1,.3,5.26q0,12.13-7.28,19.29t-20,7.17q-13.64,0-21-7.47t-7.32-21.56Z" transform="translate(-307.59 -318.88)"/><path class="cls-8" d="M1127.05,456.27q-7.58,0-11,3.56t-3.45,11.9v53.89H1093V436.87h19.55v7.73l-1.67,8.18h.76a25.71,25.71,0,0,1,4-8.18,27.11,27.11,0,0,1,5.76-5.84,14.39,14.39,0,0,1,9-2.73h3.41v20.24Z" transform="translate(-307.59 -318.88)"/><path class="cls-8" d="M1145.44,406.09H1165v20.47h-19.56Zm0,30.78H1165v88.75h-19.56Z" transform="translate(-307.59 -318.88)"/><path class="cls-8" d="M1239,500q0,14.79-5.27,21.08a17,17,0,0,1-13.68,6.29,14.83,14.83,0,0,1-8.72-2.5,22.14,22.14,0,0,1-5.68-5.61,32.8,32.8,0,0,1-4.4-8.27h-.76l1.67,7.81v41h-19.56V436.87h19.56v6.82l-1.67,7.73h.76a37.36,37.36,0,0,1,4.4-8.19,23.69,23.69,0,0,1,5.72-5.61,14.66,14.66,0,0,1,8.68-2.5,16.93,16.93,0,0,1,13.68,6.37q5.27,6.36,5.27,20.92Zm-36.84-2.65q0,6.52,2.35,9.25a8.44,8.44,0,0,0,12.43,0c1.56-1.82,2.35-4.9,2.35-9.25V465.06c0-4.34-.79-7.41-2.35-9.21a8.52,8.52,0,0,0-12.43,0q-2.36,2.7-2.35,9.21Z" transform="translate(-307.59 -318.88)"/><path class="cls-8" d="M1295.77,453.92h-14.48v47c0,3,.6,5.13,1.79,6.45a6.24,6.24,0,0,0,4.88,2,17.65,17.65,0,0,0,5.46-.76c.81-.3,1.59-.63,2.35-1v17.29c-.91.4-2,.8-3.26,1.21s-2.51.59-4,.87a30.68,30.68,0,0,1-5.42.42q-9.78,0-15.62-6.14t-5.83-17.81v-49.5h-10.23V436.87h10.23V416.33h19.7v20.54h14.48Z" transform="translate(-307.59 -318.88)"/><path class="cls-8" d="M1308.93,503.42h19.71v22.2h-19.71Z" transform="translate(-307.59 -318.88)"/><path class="cls-8" d="M1343.62,462.41a48.08,48.08,0,0,1,1.41-12.47,23.93,23.93,0,0,1,3.9-8.45,15.55,15.55,0,0,1,5.91-4.81,18,18,0,0,1,7.58-1.56,14.85,14.85,0,0,1,8.72,2.5,22.3,22.3,0,0,1,5.68,5.61,37.36,37.36,0,0,1,4.4,8.19h.76l-1.75-7.58v-42.9H1400V525.62h-19.79V518.8L1382,511h-.76a34.61,34.61,0,0,1-4.4,8.27,23.69,23.69,0,0,1-5.72,5.61,14.66,14.66,0,0,1-8.68,2.5,19,19,0,0,1-7.58-1.48,15,15,0,0,1-5.91-4.74,23.89,23.89,0,0,1-3.9-8.49,49.15,49.15,0,0,1-1.41-12.66Zm36.61,2.65q0-6.51-2.31-9.21a7.57,7.57,0,0,0-6-2.69,8.07,8.07,0,0,0-6.29,2.69q-2.43,2.7-2.43,9.21v32.29q0,6.52,2.43,9.25a8,8,0,0,0,6.29,2.73,7.52,7.52,0,0,0,6-2.73q2.31-2.73,2.31-9.25Z" transform="translate(-307.59 -318.88)"/><path class="cls-8" d="M1436.22,487.12v11.22q0,6.51,2.43,9.21a8.07,8.07,0,0,0,6.29,2.69,7.77,7.77,0,0,0,6-2.54c1.54-1.69,2.32-4.26,2.32-7.7v-5.15h17.28l.76,2.35c.2.81.4,1.74.6,2.8a18.53,18.53,0,0,1,.3,3.42,24.57,24.57,0,0,1-1.78,9.47,21.74,21.74,0,0,1-5.19,7.58,23.57,23.57,0,0,1-8.53,5.08,35.16,35.16,0,0,1-11.78,1.82q-13.65,0-21-7.47t-7.31-21.56V464.15q0-14.1,7.31-21.56t21-7.47q13.49,0,20.8,7.47t7.32,21.56v23Zm0-16.3h17.06V464c0-4.24-.78-7.27-2.32-9.09a7.52,7.52,0,0,0-6-2.73,8,8,0,0,0-6.29,2.73q-2.43,2.73-2.43,9.09Z" transform="translate(-307.59 -318.88)"/><path class="cls-8" d="M1503.2,436.87l7.81,54.57.91,14.48h.75l.91-14.48,7.66-54.57h20.46l-16.29,88.75H1499l-16.3-88.75Z" transform="translate(-307.59 -318.88)"/></svg>